<mxfile host="65bd71144e">
    <diagram name="Strona-1" id="_7kTEZk2QlYLYmno1uJs">
        <mxGraphModel dx="1130" dy="531" grid="1" gridSize="10" guides="1" tooltips="1" connect="1" arrows="1" fold="1" page="1" pageScale="1" pageWidth="827" pageHeight="1169" math="0" shadow="0">
            <root>
                <mxCell id="0"/>
                <mxCell id="1" parent="0"/>
                <mxCell id="vJ58kYL-t4bkrTQLtRn1-1" value="Book" style="swimlane;fontStyle=1;align=center;verticalAlign=top;childLayout=stackLayout;horizontal=1;startSize=26;horizontalStack=0;resizeParent=1;resizeParentMax=0;resizeLast=0;collapsible=1;marginBottom=0;whiteSpace=wrap;html=1;" parent="1" vertex="1">
                    <mxGeometry x="380" y="79" width="160" height="180" as="geometry"/>
                </mxCell>
                <mxCell id="vJ58kYL-t4bkrTQLtRn1-2" value="- title: string&lt;div&gt;- genre: string&lt;/div&gt;&lt;div&gt;- year: int&lt;/div&gt;&lt;div&gt;chapters: Chapter[]&lt;/div&gt;" style="text;strokeColor=none;fillColor=none;align=left;verticalAlign=top;spacingLeft=4;spacingRight=4;overflow=hidden;rotatable=0;points=[[0,0.5],[1,0.5]];portConstraint=eastwest;whiteSpace=wrap;html=1;" parent="vJ58kYL-t4bkrTQLtRn1-1" vertex="1">
                    <mxGeometry y="26" width="160" height="64" as="geometry"/>
                </mxCell>
                <mxCell id="vJ58kYL-t4bkrTQLtRn1-3" value="" style="line;strokeWidth=1;fillColor=none;align=left;verticalAlign=middle;spacingTop=-1;spacingLeft=3;spacingRight=3;rotatable=0;labelPosition=right;points=[];portConstraint=eastwest;strokeColor=inherit;" parent="vJ58kYL-t4bkrTQLtRn1-1" vertex="1">
                    <mxGeometry y="90" width="160" height="8" as="geometry"/>
                </mxCell>
                <mxCell id="vJ58kYL-t4bkrTQLtRn1-4" value="+openBook()&lt;div&gt;+closeBook()&lt;/div&gt;&lt;div&gt;+makeBookmark()&lt;/div&gt;" style="text;strokeColor=none;fillColor=none;align=left;verticalAlign=top;spacingLeft=4;spacingRight=4;overflow=hidden;rotatable=0;points=[[0,0.5],[1,0.5]];portConstraint=eastwest;whiteSpace=wrap;html=1;" parent="vJ58kYL-t4bkrTQLtRn1-1" vertex="1">
                    <mxGeometry y="98" width="160" height="82" as="geometry"/>
                </mxCell>
                <mxCell id="vJ58kYL-t4bkrTQLtRn1-5" value="Writer" style="swimlane;fontStyle=1;align=center;verticalAlign=top;childLayout=stackLayout;horizontal=1;startSize=26;horizontalStack=0;resizeParent=1;resizeParentMax=0;resizeLast=0;collapsible=1;marginBottom=0;whiteSpace=wrap;html=1;" parent="1" vertex="1">
                    <mxGeometry x="100" y="79" width="160" height="180" as="geometry"/>
                </mxCell>
                <mxCell id="vJ58kYL-t4bkrTQLtRn1-6" value="- name:string&lt;div&gt;- age: int&lt;/div&gt;&lt;div&gt;- number_of_books: int&lt;/div&gt;&lt;div&gt;- book: Book&lt;/div&gt;" style="text;strokeColor=none;fillColor=none;align=left;verticalAlign=top;spacingLeft=4;spacingRight=4;overflow=hidden;rotatable=0;points=[[0,0.5],[1,0.5]];portConstraint=eastwest;whiteSpace=wrap;html=1;" parent="vJ58kYL-t4bkrTQLtRn1-5" vertex="1">
                    <mxGeometry y="26" width="160" height="74" as="geometry"/>
                </mxCell>
                <mxCell id="vJ58kYL-t4bkrTQLtRn1-7" value="" style="line;strokeWidth=1;fillColor=none;align=left;verticalAlign=middle;spacingTop=-1;spacingLeft=3;spacingRight=3;rotatable=0;labelPosition=right;points=[];portConstraint=eastwest;strokeColor=inherit;" parent="vJ58kYL-t4bkrTQLtRn1-5" vertex="1">
                    <mxGeometry y="100" width="160" height="8" as="geometry"/>
                </mxCell>
                <mxCell id="vJ58kYL-t4bkrTQLtRn1-8" value="+ writeBook()&lt;div&gt;+ openBook()&lt;/div&gt;&lt;div&gt;+ postBook()&lt;/div&gt;" style="text;strokeColor=none;fillColor=none;align=left;verticalAlign=top;spacingLeft=4;spacingRight=4;overflow=hidden;rotatable=0;points=[[0,0.5],[1,0.5]];portConstraint=eastwest;whiteSpace=wrap;html=1;" parent="vJ58kYL-t4bkrTQLtRn1-5" vertex="1">
                    <mxGeometry y="108" width="160" height="72" as="geometry"/>
                </mxCell>
                <mxCell id="vJ58kYL-t4bkrTQLtRn1-12" value="1" style="endArrow=open;html=1;endSize=12;startArrow=diamondThin;startSize=14;startFill=0;edgeStyle=orthogonalEdgeStyle;align=left;verticalAlign=bottom;rounded=0;entryX=-0.017;entryY=0.83;entryDx=0;entryDy=0;entryPerimeter=0;" parent="1" target="vJ58kYL-t4bkrTQLtRn1-2" edge="1">
                    <mxGeometry x="-1" y="3" relative="1" as="geometry">
                        <mxPoint x="260" y="159.71" as="sourcePoint"/>
                        <mxPoint x="420" y="159.71" as="targetPoint"/>
                    </mxGeometry>
                </mxCell>
                <mxCell id="vJ58kYL-t4bkrTQLtRn1-13" value="Chapter" style="swimlane;fontStyle=1;align=center;verticalAlign=top;childLayout=stackLayout;horizontal=1;startSize=26;horizontalStack=0;resizeParent=1;resizeParentMax=0;resizeLast=0;collapsible=1;marginBottom=0;whiteSpace=wrap;html=1;" parent="1" vertex="1">
                    <mxGeometry x="260" y="320" width="160" height="86" as="geometry"/>
                </mxCell>
                <mxCell id="vJ58kYL-t4bkrTQLtRn1-14" value="+ field: type" style="text;strokeColor=none;fillColor=none;align=left;verticalAlign=top;spacingLeft=4;spacingRight=4;overflow=hidden;rotatable=0;points=[[0,0.5],[1,0.5]];portConstraint=eastwest;whiteSpace=wrap;html=1;" parent="vJ58kYL-t4bkrTQLtRn1-13" vertex="1">
                    <mxGeometry y="26" width="160" height="26" as="geometry"/>
                </mxCell>
                <mxCell id="vJ58kYL-t4bkrTQLtRn1-15" value="" style="line;strokeWidth=1;fillColor=none;align=left;verticalAlign=middle;spacingTop=-1;spacingLeft=3;spacingRight=3;rotatable=0;labelPosition=right;points=[];portConstraint=eastwest;strokeColor=inherit;" parent="vJ58kYL-t4bkrTQLtRn1-13" vertex="1">
                    <mxGeometry y="52" width="160" height="8" as="geometry"/>
                </mxCell>
                <mxCell id="vJ58kYL-t4bkrTQLtRn1-16" value="+ method(type): type" style="text;strokeColor=none;fillColor=none;align=left;verticalAlign=top;spacingLeft=4;spacingRight=4;overflow=hidden;rotatable=0;points=[[0,0.5],[1,0.5]];portConstraint=eastwest;whiteSpace=wrap;html=1;" parent="vJ58kYL-t4bkrTQLtRn1-13" vertex="1">
                    <mxGeometry y="60" width="160" height="26" as="geometry"/>
                </mxCell>
            </root>
        </mxGraphModel>
    </diagram>
</mxfile>